<?xml version="1.0" encoding="UTF-8" standalone="no"?>
<!DOCTYPE svg PUBLIC "-//W3C//DTD SVG 1.1//EN"
 "http://www.w3.org/Graphics/SVG/1.1/DTD/svg11.dtd">
<!-- Generated by graphviz version 2.43.0 (0)
 -->
<!-- Title: Business Passport – How It Works Pages: 1 -->
<svg width="4523pt" height="1855pt"
 viewBox="0.00 0.00 2171.20 890.20" xmlns="http://www.w3.org/2000/svg" xmlns:xlink="http://www.w3.org/1999/xlink">
<g id="graph0" class="graph" transform="scale(2.08 2.08) rotate(0) translate(57.6 832.6)">
<title>Business Passport – How It Works</title>
<polygon fill="#f9f9f9" stroke="transparent" points="-57.6,57.6 -57.6,-832.6 2113.6,-832.6 2113.6,57.6 -57.6,57.6"/>
<text text-anchor="middle" x="1028" y="-9" font-family="Sans-Serif" font-size="15.00" fill="#2d3436">Business Passport – How It Works</text>
<g id="clust1" class="cluster">
<title>cluster_① Submit</title>
<path fill="#e5f5fd" stroke="#aeb6be" d="M295,-369C295,-369 867,-369 867,-369 873,-369 879,-375 879,-381 879,-381 879,-755 879,-755 879,-761 873,-767 867,-767 867,-767 295,-767 295,-767 289,-767 283,-761 283,-755 283,-755 283,-381 283,-381 283,-375 289,-369 295,-369"/>
<text text-anchor="middle" x="319.5" y="-753.4" font-family="Sans-Serif" font-size="12.00" fill="#2d3436">① Submit</text>
</g>
<g id="clust2" class="cluster">
<title>cluster_② Orchestrate</title>
<path fill="#e5f5fd" stroke="#aeb6be" d="M1065,-131C1065,-131 1158,-131 1158,-131 1164,-131 1170,-137 1170,-143 1170,-143 1170,-294 1170,-294 1170,-300 1164,-306 1158,-306 1158,-306 1065,-306 1065,-306 1059,-306 1053,-300 1053,-294 1053,-294 1053,-143 1053,-143 1053,-137 1059,-131 1065,-131"/>
<text text-anchor="middle" x="1104" y="-292.4" font-family="Sans-Serif" font-size="12.00" fill="#2d3436">② Orchestrate</text>
</g>
<g id="clust3" class="cluster">
<title>cluster_③ AI Analysis (GCP)</title>
<path fill="#e5f5fd" stroke="#aeb6be" d="M499,-117C499,-117 867,-117 867,-117 873,-117 879,-123 879,-129 879,-129 879,-308 879,-308 879,-314 873,-320 867,-320 867,-320 499,-320 499,-320 493,-320 487,-314 487,-308 487,-308 487,-129 487,-129 487,-123 493,-117 499,-117"/>
<text text-anchor="middle" x="553" y="-306.4" font-family="Sans-Serif" font-size="12.00" fill="#2d3436">③ AI Analysis (GCP)</text>
</g>
<g id="clust4" class="cluster">
<title>cluster_④ Score &amp; Report</title>
<path fill="#e5f5fd" stroke="#aeb6be" d="M1269,-131C1269,-131 1566,-131 1566,-131 1572,-131 1578,-137 1578,-143 1578,-143 1578,-294 1578,-294 1578,-300 1572,-306 1566,-306 1566,-306 1269,-306 1269,-306 1263,-306 1257,-300 1257,-294 1257,-294 1257,-143 1257,-143 1257,-137 1263,-131 1269,-131"/>
<text text-anchor="middle" x="1317.5" y="-292.4" font-family="Sans-Serif" font-size="12.00" fill="#2d3436">④ Score &amp; Report</text>
</g>
<g id="clust5" class="cluster">
<title>cluster_⑤ Deliver</title>
<path fill="#e5f5fd" stroke="#aeb6be" d="M1677,-131C1677,-131 1770,-131 1770,-131 1776,-131 1782,-137 1782,-143 1782,-143 1782,-294 1782,-294 1782,-300 1776,-306 1770,-306 1770,-306 1677,-306 1677,-306 1671,-306 1665,-300 1665,-294 1665,-294 1665,-143 1665,-143 1665,-137 1671,-131 1677,-131"/>
<text text-anchor="middle" x="1701.5" y="-292.4" font-family="Sans-Serif" font-size="12.00" fill="#2d3436">⑤ Deliver</text>
</g>
<!-- ae0ff0925bd645da8097f452d3008853 -->
<g id="node1" class="node">
<title>ae0ff0925bd645da8097f452d3008853</title>
<image xlink:href="/mnt/c/Users/Lundi Zolisa Silolo/Street-Crede/business-passport/.venv/lib/python3.12/site-packages/resources/onprem/client/user.png" width="101px" height="101px" preserveAspectRatio="xMinYMin meet" x="0" y="-608.5"/>
<text text-anchor="middle" x="50.5" y="-492.6" font-family="Sans-Serif" font-size="13.00" fill="#2d3436">Business Owner</text>
<text text-anchor="middle" x="50.5" y="-478.6" font-family="Sans-Serif" font-size="13.00" fill="#2d3436">(Applicant)</text>
</g>
<!-- 103c231202224f78825c483066755782 -->
<g id="node2" class="node">
<title>103c231202224f78825c483066755782</title>
<image xlink:href="/mnt/c/Users/Lundi Zolisa Silolo/Street-Crede/business-passport/.venv/lib/python3.12/site-packages/resources/aws/network/api-gateway.png" width="101px" height="101px" preserveAspectRatio="xMinYMin meet" x="291" y="-608.5"/>
<text text-anchor="middle" x="341.5" y="-493.1" font-family="Sans-Serif" font-size="13.00" fill="#2d3436">Secure Entry Point</text>
</g>
<!-- ae0ff0925bd645da8097f452d3008853&#45;&gt;103c231202224f78825c483066755782 -->
<g id="edge1" class="edge">
<title>ae0ff0925bd645da8097f452d3008853&#45;&gt;103c231202224f78825c483066755782</title>
<path fill="none" stroke="#7b8894" d="M101.18,-562.3C142.31,-565.12 174.75,-564.49 280.52,-560.4"/>
<polygon fill="#7b8894" stroke="#7b8894" points="280.79,-563.89 290.64,-560 280.51,-556.89 280.79,-563.89"/>
<text text-anchor="middle" x="196" y="-561.6" font-family="Sans-Serif" font-size="13.00" fill="#2d3436">submits docs</text>
</g>
<!-- 54e15f9927d34bd0a3ccd9c6e09faa41 -->
<g id="node3" class="node">
<title>54e15f9927d34bd0a3ccd9c6e09faa41</title>
<image xlink:href="/mnt/c/Users/Lundi Zolisa Silolo/Street-Crede/business-passport/.venv/lib/python3.12/site-packages/resources/aws/compute/lambda.png" width="101px" height="101px" preserveAspectRatio="xMinYMin meet" x="495" y="-608.5"/>
<text text-anchor="middle" x="545.5" y="-493.1" font-family="Sans-Serif" font-size="13.00" fill="#2d3436">Register Job</text>
</g>
<!-- 103c231202224f78825c483066755782&#45;&gt;54e15f9927d34bd0a3ccd9c6e09faa41 -->
<g id="edge2" class="edge">
<title>103c231202224f78825c483066755782&#45;&gt;54e15f9927d34bd0a3ccd9c6e09faa41</title>
<path fill="none" stroke="#7b8894" d="M392.24,-563.4C413.31,-564.57 436.46,-563.89 484.81,-561.34"/>
<polygon fill="#7b8894" stroke="#7b8894" points="485.02,-564.83 494.82,-560.81 484.65,-557.84 485.02,-564.83"/>
</g>
<!-- 5b7180558f2a4252a9959844bf536f9e -->
<g id="node4" class="node">
<title>5b7180558f2a4252a9959844bf536f9e</title>
<image xlink:href="/mnt/c/Users/Lundi Zolisa Silolo/Street-Crede/business-passport/.venv/lib/python3.12/site-packages/resources/aws/storage/simple-storage-service-s3.png" width="101px" height="101px" preserveAspectRatio="xMinYMin meet" x="770" y="-496.5"/>
<text text-anchor="middle" x="820.5" y="-381.1" font-family="Sans-Serif" font-size="13.00" fill="#2d3436">Document Storage</text>
</g>
<!-- 54e15f9927d34bd0a3ccd9c6e09faa41&#45;&gt;5b7180558f2a4252a9959844bf536f9e -->
<g id="edge3" class="edge">
<title>54e15f9927d34bd0a3ccd9c6e09faa41&#45;&gt;5b7180558f2a4252a9959844bf536f9e</title>
<path fill="none" stroke="#7b8894" d="M596.22,-529.43C631.45,-511.02 663.94,-499.04 760.44,-466.31"/>
<polygon fill="#7b8894" stroke="#7b8894" points="761.63,-469.6 769.98,-463.07 759.38,-462.97 761.63,-469.6"/>
</g>
<!-- ef70ebc3bc1043d6a510d242bc3349bd -->
<g id="node5" class="node">
<title>ef70ebc3bc1043d6a510d242bc3349bd</title>
<image xlink:href="/mnt/c/Users/Lundi Zolisa Silolo/Street-Crede/business-passport/.venv/lib/python3.12/site-packages/resources/aws/database/dynamodb.png" width="101px" height="101px" preserveAspectRatio="xMinYMin meet" x="770" y="-719.5"/>
<text text-anchor="middle" x="820.5" y="-604.1" font-family="Sans-Serif" font-size="13.00" fill="#2d3436">Job Tracker</text>
</g>
<!-- 54e15f9927d34bd0a3ccd9c6e09faa41&#45;&gt;ef70ebc3bc1043d6a510d242bc3349bd -->
<g id="edge4" class="edge">
<title>54e15f9927d34bd0a3ccd9c6e09faa41&#45;&gt;ef70ebc3bc1043d6a510d242bc3349bd</title>
<path fill="none" stroke="#7b8894" d="M596.22,-604.96C634.14,-635.85 665.08,-644.53 759.95,-659.64"/>
<polygon fill="#7b8894" stroke="#7b8894" points="759.53,-663.12 769.96,-661.22 760.63,-656.2 759.53,-663.12"/>
</g>
<!-- 1fd1b303ddd94ceebd1b40ec3d0ee5ef -->
<g id="node6" class="node">
<title>1fd1b303ddd94ceebd1b40ec3d0ee5ef</title>
<image xlink:href="/mnt/c/Users/Lundi Zolisa Silolo/Street-Crede/business-passport/.venv/lib/python3.12/site-packages/resources/aws/integration/step-functions.png" width="101px" height="101px" preserveAspectRatio="xMinYMin meet" x="1061" y="-258.5"/>
<text text-anchor="middle" x="1111.5" y="-143.1" font-family="Sans-Serif" font-size="13.00" fill="#2d3436">Processing Pipeline</text>
</g>
<!-- 5b7180558f2a4252a9959844bf536f9e&#45;&gt;1fd1b303ddd94ceebd1b40ec3d0ee5ef -->
<g id="edge5" class="edge">
<title>5b7180558f2a4252a9959844bf536f9e&#45;&gt;1fd1b303ddd94ceebd1b40ec3d0ee5ef</title>
<path fill="none" stroke="#7b8894" d="M861.62,-377.4C923.38,-277.01 948.57,-257.58 1051.13,-225.9"/>
<polygon fill="#7b8894" stroke="#7b8894" points="1052.43,-229.17 1060.97,-222.9 1050.38,-222.47 1052.43,-229.17"/>
<text text-anchor="middle" x="967" y="-397.6" font-family="Sans-Serif" font-size="13.00" fill="#2d3436">auto&#45;triggers</text>
</g>
<!-- a3d97383ed0d485e9aa055d9085eb420 -->
<g id="node7" class="node">
<title>a3d97383ed0d485e9aa055d9085eb420</title>
<image xlink:href="/mnt/c/Users/Lundi Zolisa Silolo/Street-Crede/business-passport/.venv/lib/python3.12/site-packages/resources/gcp/compute/run.png" width="101px" height="101px" preserveAspectRatio="xMinYMin meet" x="495" y="-252.5"/>
<text text-anchor="middle" x="545.5" y="-137.1" font-family="Sans-Serif" font-size="13.00" fill="#2d3436">Audio &amp; Image AI</text>
</g>
<!-- 1fd1b303ddd94ceebd1b40ec3d0ee5ef&#45;&gt;a3d97383ed0d485e9aa055d9085eb420 -->
<g id="edge6" class="edge">
<title>1fd1b303ddd94ceebd1b40ec3d0ee5ef&#45;&gt;a3d97383ed0d485e9aa055d9085eb420</title>
<path fill="none" stroke="#7b8894" d="M596.16,-197.22C889.2,-169.64 934.45,-167.31 1050.75,-193.61"/>
<polygon fill="#7b8894" stroke="#7b8894" points="1050.21,-197.07 1060.74,-195.89 1051.77,-190.25 1050.21,-197.07"/>
<text text-anchor="middle" x="820.5" y="-28.6" font-family="Sans-Serif" font-size="13.00" fill="#2d3436">audio &amp; images</text>
</g>
<!-- 4018c8a2ccac43b2ba0f92cda94c32f9 -->
<g id="node9" class="node">
<title>4018c8a2ccac43b2ba0f92cda94c32f9</title>
<image xlink:href="/mnt/c/Users/Lundi Zolisa Silolo/Street-Crede/business-passport/.venv/lib/python3.12/site-packages/resources/aws/compute/lambda.png" width="101px" height="101px" preserveAspectRatio="xMinYMin meet" x="1265" y="-258.5"/>
<text text-anchor="middle" x="1315.5" y="-143.1" font-family="Sans-Serif" font-size="13.00" fill="#2d3436">Scoring Engine</text>
</g>
<!-- 1fd1b303ddd94ceebd1b40ec3d0ee5ef&#45;&gt;4018c8a2ccac43b2ba0f92cda94c32f9 -->
<g id="edge9" class="edge">
<title>1fd1b303ddd94ceebd1b40ec3d0ee5ef&#45;&gt;4018c8a2ccac43b2ba0f92cda94c32f9</title>
<path fill="none" stroke="#7b8894" d="M1162.1,-195.48C1208.23,-184.51 1230.72,-181.41 1254.55,-186.2"/>
<polygon fill="#7b8894" stroke="#7b8894" points="1254,-189.67 1264.54,-188.63 1255.65,-182.87 1254,-189.67"/>
</g>
<!-- 7c3df53c7f2d401da643b5f8a272861c -->
<g id="node8" class="node">
<title>7c3df53c7f2d401da643b5f8a272861c</title>
<image xlink:href="/mnt/c/Users/Lundi Zolisa Silolo/Street-Crede/business-passport/.venv/lib/python3.12/site-packages/resources/gcp/ml/ai-hub.png" width="101px" height="101px" preserveAspectRatio="xMinYMin meet" x="770" y="-258.5"/>
<text text-anchor="middle" x="820.5" y="-142.6" font-family="Sans-Serif" font-size="13.00" fill="#2d3436">Language Model</text>
<text text-anchor="middle" x="820.5" y="-128.6" font-family="Sans-Serif" font-size="13.00" fill="#2d3436">(Gemma 2)</text>
</g>
<!-- a3d97383ed0d485e9aa055d9085eb420&#45;&gt;7c3df53c7f2d401da643b5f8a272861c -->
<g id="edge7" class="edge">
<title>a3d97383ed0d485e9aa055d9085eb420&#45;&gt;7c3df53c7f2d401da643b5f8a272861c</title>
<path fill="none" stroke="#7b8894" d="M596.2,-203.56C633.1,-204.63 664.53,-205.25 759.77,-206.93"/>
<polygon fill="#7b8894" stroke="#7b8894" points="759.75,-210.43 769.81,-207.11 759.88,-203.43 759.75,-210.43"/>
<text text-anchor="middle" x="682" y="-214.6" font-family="Sans-Serif" font-size="13.00" fill="#2d3436">synthesise</text>
</g>
<!-- 7c3df53c7f2d401da643b5f8a272861c&#45;&gt;1fd1b303ddd94ceebd1b40ec3d0ee5ef -->
<g id="edge8" class="edge">
<title>7c3df53c7f2d401da643b5f8a272861c&#45;&gt;1fd1b303ddd94ceebd1b40ec3d0ee5ef</title>
<path fill="none" stroke="#7b8894" d="M871.18,-208.21C975.92,-208.63 1012.65,-208.73 1050.52,-208.51"/>
<polygon fill="#7b8894" stroke="#7b8894" points="1050.77,-212.01 1060.75,-208.45 1050.73,-205.01 1050.77,-212.01"/>
</g>
<!-- 795b91c8a6c24e0f8d5413a645a3232c -->
<g id="node10" class="node">
<title>795b91c8a6c24e0f8d5413a645a3232c</title>
<image xlink:href="/mnt/c/Users/Lundi Zolisa Silolo/Street-Crede/business-passport/.venv/lib/python3.12/site-packages/resources/aws/compute/lambda.png" width="101px" height="101px" preserveAspectRatio="xMinYMin meet" x="1469" y="-258.5"/>
<text text-anchor="middle" x="1519.5" y="-143.1" font-family="Sans-Serif" font-size="13.00" fill="#2d3436">Passport Generator</text>
</g>
<!-- 4018c8a2ccac43b2ba0f92cda94c32f9&#45;&gt;795b91c8a6c24e0f8d5413a645a3232c -->
<g id="edge10" class="edge">
<title>4018c8a2ccac43b2ba0f92cda94c32f9&#45;&gt;795b91c8a6c24e0f8d5413a645a3232c</title>
<path fill="none" stroke="#7b8894" d="M1366.03,-200.34C1413.39,-193.36 1437.58,-190.89 1458.84,-192.93"/>
<polygon fill="#7b8894" stroke="#7b8894" points="1458.43,-196.41 1468.8,-194.24 1459.34,-189.47 1458.43,-196.41"/>
</g>
<!-- f8f128b22fed4ec0b4c79cb01675eae6 -->
<g id="node11" class="node">
<title>f8f128b22fed4ec0b4c79cb01675eae6</title>
<image xlink:href="/mnt/c/Users/Lundi Zolisa Silolo/Street-Crede/business-passport/.venv/lib/python3.12/site-packages/resources/aws/integration/simple-notification-service-sns.png" width="101px" height="101px" preserveAspectRatio="xMinYMin meet" x="1673" y="-258.5"/>
<text text-anchor="middle" x="1723.5" y="-143.1" font-family="Sans-Serif" font-size="13.00" fill="#2d3436">Notifications</text>
</g>
<!-- 795b91c8a6c24e0f8d5413a645a3232c&#45;&gt;f8f128b22fed4ec0b4c79cb01675eae6 -->
<g id="edge11" class="edge">
<title>795b91c8a6c24e0f8d5413a645a3232c&#45;&gt;f8f128b22fed4ec0b4c79cb01675eae6</title>
<path fill="none" stroke="#7b8894" d="M1570.19,-202.64C1617.37,-197.78 1642.03,-195.94 1662.64,-197.12"/>
<polygon fill="#7b8894" stroke="#7b8894" points="1662.58,-200.63 1672.84,-197.98 1663.16,-193.65 1662.58,-200.63"/>
</g>
<!-- 735583c4510d4edab26cd098ed14c271 -->
<g id="node12" class="node">
<title>735583c4510d4edab26cd098ed14c271</title>
<image xlink:href="/mnt/c/Users/Lundi Zolisa Silolo/Street-Crede/business-passport/.venv/lib/python3.12/site-packages/resources/onprem/client/user.png" width="101px" height="101px" preserveAspectRatio="xMinYMin meet" x="1955" y="-258.5"/>
<text text-anchor="middle" x="2005.5" y="-143.1" font-family="Sans-Serif" font-size="13.00" fill="#2d3436">Receives Passport</text>
</g>
<!-- f8f128b22fed4ec0b4c79cb01675eae6&#45;&gt;735583c4510d4edab26cd098ed14c271 -->
<g id="edge12" class="edge">
<title>f8f128b22fed4ec0b4c79cb01675eae6&#45;&gt;735583c4510d4edab26cd098ed14c271</title>
<path fill="none" stroke="#7b8894" d="M1774.46,-204.06C1872.83,-196.53 1907.98,-194.7 1944.82,-198.59"/>
<polygon fill="#7b8894" stroke="#7b8894" points="1944.44,-202.07 1954.78,-199.77 1945.26,-195.12 1944.44,-202.07"/>
<text text-anchor="middle" x="1864.5" y="-211.6" font-family="Sans-Serif" font-size="13.00" fill="#2d3436">SMS / Email</text>
</g>
</g>
</svg>
