<?xml version="1.0" encoding="UTF-8" standalone="no"?>
<!DOCTYPE svg PUBLIC "-//W3C//DTD SVG 1.1//EN"
 "http://www.w3.org/Graphics/SVG/1.1/DTD/svg11.dtd">
<!-- Generated by graphviz version 2.43.0 (0)
 -->
<!-- Title: Business Passport – Technical Architecture Pages: 1 -->
<svg width="3720pt" height="2868pt"
 viewBox="0.00 0.00 1785.40 1376.40" xmlns="http://www.w3.org/2000/svg" xmlns:xlink="http://www.w3.org/1999/xlink">
<g id="graph0" class="graph" transform="scale(2.08 2.08) rotate(0) translate(43.2 1333.2)">
<title>Business Passport – Technical Architecture</title>
<polygon fill="white" stroke="transparent" points="-43.2,43.2 -43.2,-1333.2 1742.2,-1333.2 1742.2,43.2 -43.2,43.2"/>
<text text-anchor="middle" x="849.5" y="-7.6" font-family="Sans-Serif" font-size="13.00" fill="#2d3436">Business Passport – Technical Architecture</text>
<g id="clust1" class="cluster">
<title>cluster_AWS</title>
<path fill="#e5f5fd" stroke="#aeb6be" d="M20,-238.5C20,-238.5 1394,-238.5 1394,-238.5 1400,-238.5 1406,-244.5 1406,-250.5 1406,-250.5 1406,-1270 1406,-1270 1406,-1276 1400,-1282 1394,-1282 1394,-1282 20,-1282 20,-1282 14,-1282 8,-1276 8,-1270 8,-1270 8,-250.5 8,-250.5 8,-244.5 14,-238.5 20,-238.5"/>
<text text-anchor="middle" x="30" y="-1268.4" font-family="Sans-Serif" font-size="12.00" fill="#2d3436">AWS</text>
</g>
<g id="clust2" class="cluster">
<title>cluster_Lambda Functions</title>
<path fill="#ebf3e7" stroke="#aeb6be" d="M179,-477C179,-477 1386,-477 1386,-477 1392,-477 1398,-483 1398,-489 1398,-489 1398,-639 1398,-639 1398,-645 1392,-651 1386,-651 1386,-651 179,-651 179,-651 173,-651 167,-645 167,-639 167,-639 167,-489 167,-489 167,-483 173,-477 179,-477"/>
<text text-anchor="middle" x="229.5" y="-637.4" font-family="Sans-Serif" font-size="12.00" fill="#2d3436">Lambda Functions</text>
</g>
<g id="clust3" class="cluster">
<title>cluster_GCP</title>
<path fill="#e5f5fd" stroke="#aeb6be" d="M1426,-224C1426,-224 1679,-224 1679,-224 1685,-224 1691,-230 1691,-236 1691,-236 1691,-415 1691,-415 1691,-421 1685,-427 1679,-427 1679,-427 1426,-427 1426,-427 1420,-427 1414,-421 1414,-415 1414,-415 1414,-236 1414,-236 1414,-230 1420,-224 1426,-224"/>
<text text-anchor="middle" x="1434.5" y="-413.4" font-family="Sans-Serif" font-size="12.00" fill="#2d3436">GCP</text>
</g>
<!-- ac8f09fbd7f143cc82bb2d722b92fbe5 -->
<g id="node1" class="node">
<title>ac8f09fbd7f143cc82bb2d722b92fbe5</title>
<image xlink:href="/mnt/c/Users/Lundi Zolisa Silolo/Street-Crede/business-passport/.venv/lib/python3.12/site-packages/resources/onprem/client/user.png" width="101px" height="101px" preserveAspectRatio="xMinYMin meet" x="1533.5" y="-141"/>
<text text-anchor="middle" x="1584" y="-25.6" font-family="Sans-Serif" font-size="13.00" fill="#2d3436">Client</text>
</g>
<!-- 45a5ab4926a54cafb3f7ebe82db6ed3a -->
<g id="node2" class="node">
<title>45a5ab4926a54cafb3f7ebe82db6ed3a</title>
<image xlink:href="/mnt/c/Users/Lundi Zolisa Silolo/Street-Crede/business-passport/.venv/lib/python3.12/site-packages/resources/aws/network/api-gateway.png" width="101px" height="101px" preserveAspectRatio="xMinYMin meet" x="1292.5" y="-815"/>
<text text-anchor="middle" x="1343" y="-699.6" font-family="Sans-Serif" font-size="13.00" fill="#2d3436">API Gateway</text>
</g>
<!-- ac8f09fbd7f143cc82bb2d722b92fbe5&#45;&gt;45a5ab4926a54cafb3f7ebe82db6ed3a -->
<g id="edge1" class="edge">
<title>ac8f09fbd7f143cc82bb2d722b92fbe5&#45;&gt;45a5ab4926a54cafb3f7ebe82db6ed3a</title>
<path fill="none" stroke="#7b8894" d="M1382.89,-695.66C1559.46,-390.44 1580.72,-342.66 1583.53,-169.53"/>
<polygon fill="#7b8894" stroke="#7b8894" points="1587.03,-169.36 1583.67,-159.31 1580.03,-169.26 1587.03,-169.36"/>
</g>
<!-- 12d9b1333df74a89ae214570f6200002 -->
<g id="node10" class="node">
<title>12d9b1333df74a89ae214570f6200002</title>
<image xlink:href="/mnt/c/Users/Lundi Zolisa Silolo/Street-Crede/business-passport/.venv/lib/python3.12/site-packages/resources/aws/compute/lambda.png" width="101px" height="101px" preserveAspectRatio="xMinYMin meet" x="1288.5" y="-604"/>
<text text-anchor="middle" x="1339" y="-488.6" font-family="Sans-Serif" font-size="13.00" fill="#2d3436">ingest</text>
</g>
<!-- 45a5ab4926a54cafb3f7ebe82db6ed3a&#45;&gt;12d9b1333df74a89ae214570f6200002 -->
<g id="edge2" class="edge">
<title>45a5ab4926a54cafb3f7ebe82db6ed3a&#45;&gt;12d9b1333df74a89ae214570f6200002</title>
<path fill="none" stroke="#7b8894" d="M1367.57,-695.77C1374.02,-672.11 1374.36,-654.83 1368.38,-631.95"/>
<polygon fill="#7b8894" stroke="#7b8894" points="1371.69,-630.78 1365.55,-622.14 1364.96,-632.72 1371.69,-630.78"/>
</g>
<!-- bf9a5102f8954608809ab5dadfdd998d -->
<g id="node3" class="node">
<title>bf9a5102f8954608809ab5dadfdd998d</title>
<image xlink:href="/mnt/c/Users/Lundi Zolisa Silolo/Street-Crede/business-passport/.venv/lib/python3.12/site-packages/resources/aws/integration/eventbridge.png" width="101px" height="101px" preserveAspectRatio="xMinYMin meet" x="908.5" y="-1025"/>
<text text-anchor="middle" x="959" y="-909.6" font-family="Sans-Serif" font-size="13.00" fill="#2d3436">EventBridge</text>
</g>
<!-- a3556e7b28724a5eb3ac7009365b78e4 -->
<g id="node4" class="node">
<title>a3556e7b28724a5eb3ac7009365b78e4</title>
<image xlink:href="/mnt/c/Users/Lundi Zolisa Silolo/Street-Crede/business-passport/.venv/lib/python3.12/site-packages/resources/aws/integration/step-functions.png" width="101px" height="101px" preserveAspectRatio="xMinYMin meet" x="500.5" y="-815"/>
<text text-anchor="middle" x="551" y="-699.6" font-family="Sans-Serif" font-size="13.00" fill="#2d3436">Step Functions</text>
</g>
<!-- bf9a5102f8954608809ab5dadfdd998d&#45;&gt;a3556e7b28724a5eb3ac7009365b78e4 -->
<g id="edge6" class="edge">
<title>bf9a5102f8954608809ab5dadfdd998d&#45;&gt;a3556e7b28724a5eb3ac7009365b78e4</title>
<path fill="none" stroke="#7b8894" d="M908.48,-964.15C720.29,-925.31 679.44,-911.97 608.59,-832.83"/>
<polygon fill="#7b8894" stroke="#7b8894" points="610.88,-830.13 601.64,-824.96 605.64,-834.77 610.88,-830.13"/>
</g>
<!-- 3627b28fbabf47a6aaf564c40be2c339 -->
<g id="node6" class="node">
<title>3627b28fbabf47a6aaf564c40be2c339</title>
<image xlink:href="/mnt/c/Users/Lundi Zolisa Silolo/Street-Crede/business-passport/.venv/lib/python3.12/site-packages/resources/aws/management/cloudwatch.png" width="101px" height="101px" preserveAspectRatio="xMinYMin meet" x="16.5" y="-604"/>
<text text-anchor="middle" x="67" y="-488.6" font-family="Sans-Serif" font-size="13.00" fill="#2d3436">CloudWatch</text>
</g>
<!-- a3556e7b28724a5eb3ac7009365b78e4&#45;&gt;3627b28fbabf47a6aaf564c40be2c339 -->
<g id="edge23" class="edge">
<title>a3556e7b28724a5eb3ac7009365b78e4&#45;&gt;3627b28fbabf47a6aaf564c40be2c339</title>
<path fill="none" stroke="#7b8894" d="M500.21,-749.16C254.78,-674.95 207.53,-658.51 125.61,-598.34"/>
<polygon fill="#7b8894" stroke="#7b8894" points="127.68,-595.52 117.56,-592.37 123.51,-601.14 127.68,-595.52"/>
</g>
<!-- dd5db46bf7634936877a846e899260be -->
<g id="node11" class="node">
<title>dd5db46bf7634936877a846e899260be</title>
<image xlink:href="/mnt/c/Users/Lundi Zolisa Silolo/Street-Crede/business-passport/.venv/lib/python3.12/site-packages/resources/aws/compute/lambda.png" width="101px" height="101px" preserveAspectRatio="xMinYMin meet" x="493.5" y="-604"/>
<text text-anchor="middle" x="544" y="-488.6" font-family="Sans-Serif" font-size="13.00" fill="#2d3436">presign</text>
</g>
<!-- a3556e7b28724a5eb3ac7009365b78e4&#45;&gt;dd5db46bf7634936877a846e899260be -->
<g id="edge7" class="edge">
<title>a3556e7b28724a5eb3ac7009365b78e4&#45;&gt;dd5db46bf7634936877a846e899260be</title>
<path fill="none" stroke="#7b8894" d="M523,-695.71C515.21,-671.83 513.8,-654.57 518.4,-632.15"/>
<polygon fill="#7b8894" stroke="#7b8894" points="521.86,-632.73 520.74,-622.19 515.04,-631.13 521.86,-632.73"/>
</g>
<!-- c524f1818a314354bbd959ce6c26f209 -->
<g id="node12" class="node">
<title>c524f1818a314354bbd959ce6c26f209</title>
<image xlink:href="/mnt/c/Users/Lundi Zolisa Silolo/Street-Crede/business-passport/.venv/lib/python3.12/site-packages/resources/aws/compute/lambda.png" width="101px" height="101px" preserveAspectRatio="xMinYMin meet" x="652.5" y="-604"/>
<text text-anchor="middle" x="703" y="-488.6" font-family="Sans-Serif" font-size="13.00" fill="#2d3436">gcp_proxy</text>
</g>
<!-- a3556e7b28724a5eb3ac7009365b78e4&#45;&gt;c524f1818a314354bbd959ce6c26f209 -->
<g id="edge9" class="edge">
<title>a3556e7b28724a5eb3ac7009365b78e4&#45;&gt;c524f1818a314354bbd959ce6c26f209</title>
<path fill="none" stroke="#7b8894" d="M569.07,-695.89C581.14,-662.57 598.64,-642.11 644.76,-602.33"/>
<polygon fill="#7b8894" stroke="#7b8894" points="647.1,-604.94 652.41,-595.78 642.54,-599.63 647.1,-604.94"/>
</g>
<!-- 5d1736f159284a1fafa12c039bc1975d -->
<g id="node13" class="node">
<title>5d1736f159284a1fafa12c039bc1975d</title>
<image xlink:href="/mnt/c/Users/Lundi Zolisa Silolo/Street-Crede/business-passport/.venv/lib/python3.12/site-packages/resources/aws/compute/lambda.png" width="101px" height="101px" preserveAspectRatio="xMinYMin meet" x="811.5" y="-604"/>
<text text-anchor="middle" x="862" y="-488.6" font-family="Sans-Serif" font-size="13.00" fill="#2d3436">scrape</text>
</g>
<!-- a3556e7b28724a5eb3ac7009365b78e4&#45;&gt;5d1736f159284a1fafa12c039bc1975d -->
<g id="edge10" class="edge">
<title>a3556e7b28724a5eb3ac7009365b78e4&#45;&gt;5d1736f159284a1fafa12c039bc1975d</title>
<path fill="none" stroke="#7b8894" d="M601.76,-701.99C640.52,-659.87 678.69,-639.05 801.85,-581.48"/>
<polygon fill="#7b8894" stroke="#7b8894" points="803.68,-584.49 811.26,-577.09 800.71,-578.15 803.68,-584.49"/>
</g>
<!-- d54d2f8647f0453982a629900f80516a -->
<g id="node14" class="node">
<title>d54d2f8647f0453982a629900f80516a</title>
<image xlink:href="/mnt/c/Users/Lundi Zolisa Silolo/Street-Crede/business-passport/.venv/lib/python3.12/site-packages/resources/aws/compute/lambda.png" width="101px" height="101px" preserveAspectRatio="xMinYMin meet" x="1129.5" y="-604"/>
<text text-anchor="middle" x="1180" y="-488.6" font-family="Sans-Serif" font-size="13.00" fill="#2d3436">vertex_proxy</text>
</g>
<!-- a3556e7b28724a5eb3ac7009365b78e4&#45;&gt;d54d2f8647f0453982a629900f80516a -->
<g id="edge11" class="edge">
<title>a3556e7b28724a5eb3ac7009365b78e4&#45;&gt;d54d2f8647f0453982a629900f80516a</title>
<path fill="none" stroke="#7b8894" d="M601.74,-755.25C947.02,-692.23 995.43,-680.59 1120.7,-594.96"/>
<polygon fill="#7b8894" stroke="#7b8894" points="1122.81,-597.76 1129.07,-589.21 1118.85,-591.99 1122.81,-597.76"/>
</g>
<!-- 9c436f0e8af44381994545f1ff36ec3a -->
<g id="node15" class="node">
<title>9c436f0e8af44381994545f1ff36ec3a</title>
<image xlink:href="/mnt/c/Users/Lundi Zolisa Silolo/Street-Crede/business-passport/.venv/lib/python3.12/site-packages/resources/aws/compute/lambda.png" width="101px" height="101px" preserveAspectRatio="xMinYMin meet" x="175.5" y="-604"/>
<text text-anchor="middle" x="226" y="-488.6" font-family="Sans-Serif" font-size="13.00" fill="#2d3436">score</text>
</g>
<!-- a3556e7b28724a5eb3ac7009365b78e4&#45;&gt;9c436f0e8af44381994545f1ff36ec3a -->
<g id="edge13" class="edge">
<title>a3556e7b28724a5eb3ac7009365b78e4&#45;&gt;9c436f0e8af44381994545f1ff36ec3a</title>
<path fill="none" stroke="#7b8894" d="M500.49,-742.37C367.21,-683.81 324.51,-662.68 283.76,-621.45"/>
<polygon fill="#7b8894" stroke="#7b8894" points="286.13,-618.87 276.69,-614.08 281.08,-623.72 286.13,-618.87"/>
</g>
<!-- abbbfdc7d91d436eb41cde9fe75fcb2e -->
<g id="node16" class="node">
<title>abbbfdc7d91d436eb41cde9fe75fcb2e</title>
<image xlink:href="/mnt/c/Users/Lundi Zolisa Silolo/Street-Crede/business-passport/.venv/lib/python3.12/site-packages/resources/aws/compute/lambda.png" width="101px" height="101px" preserveAspectRatio="xMinYMin meet" x="334.5" y="-604"/>
<text text-anchor="middle" x="385" y="-488.6" font-family="Sans-Serif" font-size="13.00" fill="#2d3436">passport</text>
</g>
<!-- a3556e7b28724a5eb3ac7009365b78e4&#45;&gt;abbbfdc7d91d436eb41cde9fe75fcb2e -->
<g id="edge15" class="edge">
<title>a3556e7b28724a5eb3ac7009365b78e4&#45;&gt;abbbfdc7d91d436eb41cde9fe75fcb2e</title>
<path fill="none" stroke="#7b8894" d="M500.39,-725.35C447.23,-683.6 425.33,-662.58 410.54,-631.62"/>
<polygon fill="#7b8894" stroke="#7b8894" points="413.59,-629.86 406.34,-622.13 407.19,-632.69 413.59,-629.86"/>
</g>
<!-- 4fa45b3a0e364f26b9e580195cae4ea1 -->
<g id="node17" class="node">
<title>4fa45b3a0e364f26b9e580195cae4ea1</title>
<image xlink:href="/mnt/c/Users/Lundi Zolisa Silolo/Street-Crede/business-passport/.venv/lib/python3.12/site-packages/resources/aws/compute/lambda.png" width="101px" height="101px" preserveAspectRatio="xMinYMin meet" x="970.5" y="-604"/>
<text text-anchor="middle" x="1021" y="-488.6" font-family="Sans-Serif" font-size="13.00" fill="#2d3436">notify</text>
</g>
<!-- a3556e7b28724a5eb3ac7009365b78e4&#45;&gt;4fa45b3a0e364f26b9e580195cae4ea1 -->
<g id="edge17" class="edge">
<title>a3556e7b28724a5eb3ac7009365b78e4&#45;&gt;4fa45b3a0e364f26b9e580195cae4ea1</title>
<path fill="none" stroke="#7b8894" d="M601.68,-725.52C683.62,-664.34 725.72,-648.28 960.9,-572.76"/>
<polygon fill="#7b8894" stroke="#7b8894" points="961.97,-576.09 970.43,-569.71 959.84,-569.43 961.97,-576.09"/>
</g>
<!-- aa19e53ec50746db9c5494a1b60b6d36 -->
<g id="node5" class="node">
<title>aa19e53ec50746db9c5494a1b60b6d36</title>
<image xlink:href="/mnt/c/Users/Lundi Zolisa Silolo/Street-Crede/business-passport/.venv/lib/python3.12/site-packages/resources/aws/integration/simple-notification-service-sns.png" width="101px" height="101px" preserveAspectRatio="xMinYMin meet" x="1037.5" y="-365.5"/>
<text text-anchor="middle" x="1088" y="-250.1" font-family="Sans-Serif" font-size="13.00" fill="#2d3436">SNS</text>
</g>
<!-- aa19e53ec50746db9c5494a1b60b6d36&#45;&gt;ac8f09fbd7f143cc82bb2d722b92fbe5 -->
<g id="edge19" class="edge">
<title>aa19e53ec50746db9c5494a1b60b6d36&#45;&gt;ac8f09fbd7f143cc82bb2d722b92fbe5</title>
<path fill="none" stroke="#7b8894" d="M1138.88,-278.79C1354.69,-125.46 1389.43,-106.48 1523.23,-95.06"/>
<polygon fill="#7b8894" stroke="#7b8894" points="1523.79,-98.52 1533.47,-94.21 1523.21,-91.55 1523.79,-98.52"/>
</g>
<!-- 7308fca731b44f2590c7d7269f49faeb -->
<g id="node7" class="node">
<title>7308fca731b44f2590c7d7269f49faeb</title>
<image xlink:href="/mnt/c/Users/Lundi Zolisa Silolo/Street-Crede/business-passport/.venv/lib/python3.12/site-packages/resources/aws/storage/simple-storage-service-s3.png" width="101px" height="101px" preserveAspectRatio="xMinYMin meet" x="1027.5" y="-1235"/>
<text text-anchor="middle" x="1078" y="-1119.6" font-family="Sans-Serif" font-size="13.00" fill="#2d3436">S3 Bucket</text>
</g>
<!-- 7308fca731b44f2590c7d7269f49faeb&#45;&gt;bf9a5102f8954608809ab5dadfdd998d -->
<g id="edge5" class="edge">
<title>7308fca731b44f2590c7d7269f49faeb&#45;&gt;bf9a5102f8954608809ab5dadfdd998d</title>
<path fill="none" stroke="#7b8894" d="M1027.07,-1138.7C1010.04,-1119.16 999.67,-1097.33 984.44,-1052.87"/>
<polygon fill="#7b8894" stroke="#7b8894" points="987.74,-1051.71 981.22,-1043.36 981.11,-1053.95 987.74,-1051.71"/>
</g>
<!-- c033db4ff4e248f784b27074e16c6aba -->
<g id="node8" class="node">
<title>c033db4ff4e248f784b27074e16c6aba</title>
<image xlink:href="/mnt/c/Users/Lundi Zolisa Silolo/Street-Crede/business-passport/.venv/lib/python3.12/site-packages/resources/aws/database/dynamodb.png" width="101px" height="101px" preserveAspectRatio="xMinYMin meet" x="1263.5" y="-365.5"/>
<text text-anchor="middle" x="1314" y="-250.1" font-family="Sans-Serif" font-size="13.00" fill="#2d3436">DynamoDB</text>
</g>
<!-- dd9f713fcd5440dfbc64ad3478f2ed90 -->
<g id="node9" class="node">
<title>dd9f713fcd5440dfbc64ad3478f2ed90</title>
<image xlink:href="/mnt/c/Users/Lundi Zolisa Silolo/Street-Crede/business-passport/.venv/lib/python3.12/site-packages/resources/aws/security/secrets-manager.png" width="101px" height="101px" preserveAspectRatio="xMinYMin meet" x="652.5" y="-365.5"/>
<text text-anchor="middle" x="703" y="-250.1" font-family="Sans-Serif" font-size="13.00" fill="#2d3436">Secrets Manager</text>
</g>
<!-- 12d9b1333df74a89ae214570f6200002&#45;&gt;7308fca731b44f2590c7d7269f49faeb -->
<g id="edge3" class="edge">
<title>12d9b1333df74a89ae214570f6200002&#45;&gt;7308fca731b44f2590c7d7269f49faeb</title>
<path fill="none" stroke="#7b8894" d="M1128.76,-1131.29C1251.05,-1000.87 1266.05,-956.26 1324.79,-632.34"/>
<polygon fill="#7b8894" stroke="#7b8894" points="1328.29,-632.65 1326.63,-622.18 1321.4,-631.4 1328.29,-632.65"/>
</g>
<!-- 12d9b1333df74a89ae214570f6200002&#45;&gt;c033db4ff4e248f784b27074e16c6aba -->
<g id="edge4" class="edge">
<title>12d9b1333df74a89ae214570f6200002&#45;&gt;c033db4ff4e248f784b27074e16c6aba</title>
<path fill="none" stroke="#7b8894" d="M1353.63,-484.87C1361.56,-442.94 1362.23,-419.55 1353.39,-393.11"/>
<polygon fill="#7b8894" stroke="#7b8894" points="1356.62,-391.75 1349.86,-383.6 1350.05,-394.19 1356.62,-391.75"/>
</g>
<!-- dd5db46bf7634936877a846e899260be&#45;&gt;a3556e7b28724a5eb3ac7009365b78e4 -->
<g id="edge8" class="edge">
<title>dd5db46bf7634936877a846e899260be&#45;&gt;a3556e7b28724a5eb3ac7009365b78e4</title>
<path fill="none" stroke="#7b8894" d="M523.01,-695.76C515.2,-671.82 513.8,-654.53 518.42,-632.05"/>
<polygon fill="#7b8894" stroke="#7b8894" points="521.89,-632.59 520.77,-622.06 515.07,-630.99 521.89,-632.59"/>
</g>
<!-- c524f1818a314354bbd959ce6c26f209&#45;&gt;dd9f713fcd5440dfbc64ad3478f2ed90 -->
<g id="edge20" class="edge">
<title>c524f1818a314354bbd959ce6c26f209&#45;&gt;dd9f713fcd5440dfbc64ad3478f2ed90</title>
<path fill="none" stroke="#7b8894" d="M691.82,-484.7C685.05,-441 682.3,-415.42 683.59,-393.66"/>
<polygon fill="#7b8894" stroke="#7b8894" points="687.09,-393.83 684.5,-383.55 680.11,-393.2 687.09,-393.83"/>
</g>
<!-- d03c04fe0ff84833962fe84c14ce85be -->
<g id="node18" class="node">
<title>d03c04fe0ff84833962fe84c14ce85be</title>
<image xlink:href="/mnt/c/Users/Lundi Zolisa Silolo/Street-Crede/business-passport/.venv/lib/python3.12/site-packages/resources/gcp/compute/run.png" width="101px" height="101px" preserveAspectRatio="xMinYMin meet" x="1422.5" y="-365.5"/>
<text text-anchor="middle" x="1473" y="-249.6" font-family="Sans-Serif" font-size="13.00" fill="#2d3436">Cloud Run</text>
<text text-anchor="middle" x="1473" y="-235.6" font-family="Sans-Serif" font-size="13.00" fill="#2d3436">(Whisper + Qwen&#45;VL)</text>
</g>
<!-- c524f1818a314354bbd959ce6c26f209&#45;&gt;d03c04fe0ff84833962fe84c14ce85be -->
<g id="edge21" class="edge">
<title>c524f1818a314354bbd959ce6c26f209&#45;&gt;d03c04fe0ff84833962fe84c14ce85be</title>
<path fill="none" stroke="#7b8894" d="M753.54,-530.5C1167.98,-341.94 1210.61,-325.68 1412.38,-317.27"/>
<polygon fill="#7b8894" stroke="#7b8894" points="1412.58,-320.76 1422.43,-316.86 1412.29,-313.77 1412.58,-320.76"/>
<text text-anchor="middle" x="1459" y="-438.6" font-family="Sans-Serif" font-size="13.00" fill="#2d3436">HTTPS</text>
</g>
<!-- d54d2f8647f0453982a629900f80516a&#45;&gt;a3556e7b28724a5eb3ac7009365b78e4 -->
<g id="edge12" class="edge">
<title>d54d2f8647f0453982a629900f80516a&#45;&gt;a3556e7b28724a5eb3ac7009365b78e4</title>
<path fill="none" stroke="#7b8894" d="M601.71,-755.26C947.3,-692.18 995.51,-680.57 1121.02,-594.75"/>
<polygon fill="#7b8894" stroke="#7b8894" points="1123.14,-597.53 1129.4,-588.98 1119.18,-591.76 1123.14,-597.53"/>
</g>
<!-- 29f5c8c29cc64832bd305ae8f53657a7 -->
<g id="node19" class="node">
<title>29f5c8c29cc64832bd305ae8f53657a7</title>
<image xlink:href="/mnt/c/Users/Lundi Zolisa Silolo/Street-Crede/business-passport/.venv/lib/python3.12/site-packages/resources/gcp/ml/ai-hub.png" width="101px" height="101px" preserveAspectRatio="xMinYMin meet" x="1581.5" y="-365.5"/>
<text text-anchor="middle" x="1632" y="-249.6" font-family="Sans-Serif" font-size="13.00" fill="#2d3436">Vertex AI</text>
<text text-anchor="middle" x="1632" y="-235.6" font-family="Sans-Serif" font-size="13.00" fill="#2d3436">(Gemma 2)</text>
</g>
<!-- d54d2f8647f0453982a629900f80516a&#45;&gt;29f5c8c29cc64832bd305ae8f53657a7 -->
<g id="edge22" class="edge">
<title>d54d2f8647f0453982a629900f80516a&#45;&gt;29f5c8c29cc64832bd305ae8f53657a7</title>
<path fill="none" stroke="#7b8894" d="M1230.69,-528.69C1450.85,-420.89 1496.49,-397.95 1572.45,-351.76"/>
<polygon fill="#7b8894" stroke="#7b8894" points="1574.67,-354.51 1581.38,-346.31 1571.02,-348.54 1574.67,-354.51"/>
<text text-anchor="middle" x="1621.5" y="-438.6" font-family="Sans-Serif" font-size="13.00" fill="#2d3436">Vertex API</text>
</g>
<!-- 9c436f0e8af44381994545f1ff36ec3a&#45;&gt;a3556e7b28724a5eb3ac7009365b78e4 -->
<g id="edge14" class="edge">
<title>9c436f0e8af44381994545f1ff36ec3a&#45;&gt;a3556e7b28724a5eb3ac7009365b78e4</title>
<path fill="none" stroke="#7b8894" d="M500.37,-742.32C367.18,-683.79 324.49,-662.67 283.75,-621.44"/>
<polygon fill="#7b8894" stroke="#7b8894" points="286.13,-618.87 276.68,-614.08 281.08,-623.71 286.13,-618.87"/>
</g>
<!-- abbbfdc7d91d436eb41cde9fe75fcb2e&#45;&gt;a3556e7b28724a5eb3ac7009365b78e4 -->
<g id="edge16" class="edge">
<title>abbbfdc7d91d436eb41cde9fe75fcb2e&#45;&gt;a3556e7b28724a5eb3ac7009365b78e4</title>
<path fill="none" stroke="#7b8894" d="M500.08,-725.11C447.1,-683.48 425.26,-662.49 410.5,-631.54"/>
<polygon fill="#7b8894" stroke="#7b8894" points="413.56,-629.79 406.31,-622.06 407.15,-632.62 413.56,-629.79"/>
</g>
<!-- 4fa45b3a0e364f26b9e580195cae4ea1&#45;&gt;aa19e53ec50746db9c5494a1b60b6d36 -->
<g id="edge18" class="edge">
<title>4fa45b3a0e364f26b9e580195cae4ea1&#45;&gt;aa19e53ec50746db9c5494a1b60b6d36</title>
<path fill="none" stroke="#7b8894" d="M1029,-484.93C1034.42,-440.78 1038.72,-414.24 1045.29,-393.17"/>
<polygon fill="#7b8894" stroke="#7b8894" points="1048.67,-394.12 1048.6,-383.52 1042.04,-391.85 1048.67,-394.12"/>
</g>
</g>
</svg>
